<mxfile host="app.diagrams.net" modified="2023-04-19T13:35:43.524Z" agent="Mozilla/5.0 (Macintosh; Intel Mac OS X 10_15_7) AppleWebKit/537.36 (KHTML, like Gecko) Chrome/112.0.0.0 Safari/537.36" version="21.1.7" etag="tEcGSh9IVV0dm0XcAFoX" type="github">
  <diagram name="第 1 页" id="Mg7P_NfkH99udNW8BADI">
    <mxGraphModel>
      <root>
        <mxCell id="0" />
        <mxCell id="1" parent="0" />
      </root>
    </mxGraphModel>
  </diagram>
</mxfile>
